#!OML:ASF H:\Terrain\Patient Classification 1\Walking\liu\liu.ASF
:FULLY-SPECIFIED
:DEGREES
181
root 0.0215 16.3771 37.4884 6.45211 0.0156 1.06972
lowerback -3.2016 -0.338501 -3.05974
upperback 0.439995 -0.371626 1.86145
thorax 2.28118 -0.237091 3.61812
lowerneck -22.9801 -3.69915 -11.134
upperneck 22.3774 -4.34615 11.3856
head 11.6267 -1.48089 5.41735
rclavicle 5.2181e-015 2.06736e-014
rhumerus -36.3071 13.3011 -86.9231
rradius 37.2414
rwrist -17.2865
rhand -31.0034 -23.5292
rfingers 7.12502
rthumb -4.28638 -53.4659
lclavicle 5.2181e-015 2.06736e-014
lhumerus -35.5975 -0.529052 84.6587
lradius 19.2071
lwrist -7.80488
lhand -13.092 -26.5673
lfingers 7.12502
lthumb 13.0045 3.00734
rfemur -20.4582 -3.94002 19.3015
rtibia 69.7015
rfoot -1.51351 -12.018
rtoes -7.31358
lfemur -20.852 3.64588 -26.9924
ltibia 26.6957
lfoot -12.2678 2.82795
ltoes 0.00913311
182
root 0.0215 16.3727 37.6808 6.39643 0.0156 0.992198
lowerback -3.03359 -0.629058 -3.05002
upperback 0.40242 -0.767752 2.02855
thorax 2.18436 -0.433657 3.76639
lowerneck -23.7527 -3.73856 -10.8353
upperneck 23.2205 -4.29696 10.6902
head 12.0664 -1.50525 5.14361
rclavicle -6.55989e-015 7.55382e-015
rhumerus -36.9177 13.5142 -86.8824
rradius 36.95
rwrist -17.4304
rhand -31.1701 -23.7643
rfingers 7.12502
rthumb -4.44742 -53.6976
lclavicle -6.55989e-015 7.55382e-015
lhumerus -34.5454 -0.85711 84.9729
lradius 19.254
lwrist -7.48908
lhand -12.848 -27.1133
lfingers 7.12502
lthumb 13.2397 2.4462
rfemur -21.7785 -4.17583 19.8209
rtibia 69.6452
rfoot -3.36416 -11.8403
rtoes -11.2471
lfemur -19.951 3.19087 -26.8845
ltibia 26.1639
lfoot -12.4856 2.86671
ltoes -0.324155
183
root 0.0215 16.384 37.8731 6.34849 0.0156 0.823491
lowerback -2.87281 -0.786411 -2.81901
upperback 0.327864 -0.991964 2.13465
thorax 2.03485 -0.539737 3.73636
lowerneck -23.2622 -3.74063 -11.4657
upperneck 22.9825 -4.24382 11.1924
head 11.9009 -1.48587 5.44556
rclavicle -4.22417e-015 -2.38542e-015
rhumerus -37.6392 13.4135 -86.8222
rradius 36.6808
rwrist -17.2861
rhand -31.4577 -24.0762
rfingers 7.12502
rthumb -4.72507 -54.0035
lclavicle -4.22417e-015 -2.38542e-015
lhumerus -33.6646 -1.87852 85.4699
lradius 19.6079
lwrist -6.51149
lhand -14.693 -28.6946
lfingers 7.12502
lthumb 11.4609 0.972101
rfemur -22.9951 -4.24525 20.3185
rtibia 69.3839
rfoot -4.7858 -11.635
rtoes -12.5463
lfemur -19.1281 2.86087 -26.739
ltibia 25.8499
lfoot -12.8205 3.01721
ltoes -1.46225
184
root 0.0215 16.3965 38.0654 6.36331 0.0156 0.719112
lowerback -2.83634 -0.870011 -2.62901
upperback 0.256666 -1.11199 2.20175
thorax 1.949 -0.595452 3.6935
lowerneck -23.57 -3.81908 -11.2464
upperneck 23.4362 -4.33735 10.8441
head 12.1345 -1.54782 5.2765
rclavicle 2.83268e-014 3.18055e-015
rhumerus -38.4147 13.5356 -87.0511
rradius 36.2902
rwrist -18.0239
rhand -32.5653 -22.4605
rfingers 7.12502
rthumb -5.79456 -52.3613
lclavicle 2.83268e-014 3.18055e-015
lhumerus -32.7413 -3.03277 85.9721
lradius 20.0573
lwrist -5.70294
lhand -16.1038 -29.2656
lfingers 7.12502
lthumb 10.1 0.472035
rfemur -24.2735 -4.2057 20.6958
rtibia 68.9655
rfoot -6.17511 -11.3927
rtoes -13.6047
lfemur -18.4252 2.60379 -26.6151
ltibia 25.8217
lfoot -13.5855 2.77458
ltoes -0.650516
185
root 0.0215 16.405 38.2578 6.36195 0.0156 0.701198
lowerback -2.79958 -1.07069 -2.62224
upperback 0.214827 -1.38307 2.32681
thorax 1.91119 -0.730462 3.80726
lowerneck -22.8431 -3.74426 -11.8856
upperneck 22.9185 -4.2016 11.4168
head 11.8048 -1.48723 5.60741
rclavicle 1.34677e-014 -5.00937e-014
rhumerus -39.1707 14.2103 -87.4722
rradius 36.0012
rwrist -18.8979
rhand -34.0731 -22.2984
rfingers 7.12502
rthumb -7.25009 -52.1542
lclavicle 1.34677e-014 -5.00937e-014
lhumerus -31.6508 -3.26034 86.12
lradius 20.2421
lwrist -5.8704
lhand -14.2279 -28.0892
lfingers 7.12502
lthumb 11.9093 1.55212
rfemur -25.5062 -4.14708 20.9754
rtibia 68.3394
rfoot -7.35171 -11.0124
rtoes -14.1244
lfemur -17.7762 2.47392 -26.6129
ltibia 25.8285
lfoot -13.9005 2.61883
ltoes -1.32
186
root 0.0215 16.4047 38.4501 6.341 0.0156 0.67458
lowerback -2.79973 -1.30595 -2.6009
upperback 0.235967 -1.69894 2.37157
thorax 1.96106 -0.889729 3.82607
lowerneck -22.9336 -3.65306 -11.8556
upperneck 22.9885 -4.03323 11.2639
head 11.8202 -1.4265 5.57429
rclavicle -6.11263e-015 1.11319e-014
rhumerus -39.5185 14.0089 -87.295
rradius 35.7511
rwrist -17.8973
rhand -32.5854 -24.1351
rfingers 7.12502
rthumb -5.81393 -54.0353
lclavicle -6.11263e-015 1.11319e-014
lhumerus -30.4993 -3.60128 86.087
lradius 20.4359
lwrist -5.84282
lhand -12.4018 -26.931
lfingers 7.12502
lthumb 13.6698 2.60008
rfemur -26.585 -4.13069 21.2428
rtibia 67.546
rfoot -8.58355 -10.5033
rtoes -13.307
lfemur -17.0972 2.27188 -26.6379
ltibia 25.8384
lfoot -13.8069 2.8184
ltoes -3.18595
187
root 0.0215 16.4002 38.6424 6.44704 0.0156 0.544252
lowerback -2.99899 -1.53075 -2.48262
upperback 0.286301 -2.0007 2.38471
thorax 2.14723 -1.04325 3.75206
lowerneck -23.8666 -3.52228 -10.8933
upperneck 23.7306 -3.90411 10.3949
head 12.2279 -1.37522 5.12828
rclavicle -2.61402e-014 2.14687e-014
rhumerus -39.6878 13.4868 -86.9764
rradius 35.3824
rwrist -16.9259
rhand -30.206 -24.4798
rfingers 7.12502
rthumb -3.51642 -54.4305
lclavicle -2.61402e-014 2.14687e-014
lhumerus -29.5078 -4.5211 86.1009
lradius 21.0448
lwrist -4.8983
lhand -13.3344 -27.0538
lfingers 7.12502
lthumb 12.7708 2.53561
rfemur -27.8256 -3.99018 21.5972
rtibia 66.6694
rfoot -10.0083 -10.1948
rtoes -11.635
lfemur -16.5012 1.77714 -26.4789
ltibia 25.8227
lfoot -14.1057 2.99312
ltoes -2.20204
188
root 0.0216 16.3969 38.8348 6.55067 0.0156 0.476682
lowerback -3.12255 -1.7835 -2.4657
upperback 0.240059 -2.33932 2.50374
thorax 2.2021 -1.21345 3.84466
lowerneck -23.0093 -3.18421 -11.1947
upperneck 23.1325 -3.51995 10.948
head 11.7957 -1.17495 5.42889
rclavicle -2.40529e-014 -2.38542e-015
rhumerus -40.2756 13.6629 -86.9256
rradius 35.0375
rwrist -16.755
rhand -30.0344 -24.8427
rfingers 7.12502
rthumb -3.3507 -54.7961
lclavicle -2.40529e-014 -2.38542e-015
lhumerus -28.6551 -5.25235 86.2772
lradius 21.6236
lwrist -3.85288
lhand -14.3261 -27.3985
lfingers 7.12502
lthumb 11.8146 2.2482
rfemur -29.1117 -3.79146 21.8253
rtibia 65.793
rfoot -11.2535 -10.0534
rtoes -9.46162
lfemur -15.8857 1.48826 -26.3919
ltibia 25.7481
lfoot -14.6105 2.72854
ltoes 0.120453
189
root 0.0216 16.3839 39.0271 6.4906 0.0156 0.596422
lowerback -3.03381 -1.9864 -2.62683
upperback 0.208968 -2.60772 2.60518
thorax 2.15567 -1.34919 4.02929
lowerneck -22.8404 -3.13802 -11.4474
upperneck 23.1331 -3.42986 11.1229
head 11.7592 -1.13957 5.55456
rclavicle 2.54444e-014 5.56597e-015
rhumerus -40.9023 13.8105 -86.7798
rradius 34.7957
rwrist -16.4718
rhand -30.2156 -25.6771
rfingers 7.12502
rthumb -3.52562 -55.6277
lclavicle 2.54444e-014 5.56597e-015
lhumerus -27.7208 -5.99466 86.5769
lradius 22.1312
lwrist -2.9678
lhand -13.4722 -26.3472
lfingers 7.12502
lthumb 12.638 3.25043
rfemur -30.1049 -3.87723 21.8775
rtibia 64.8477
rfoot -11.9884 -10.1359
rtoes -7.56637
lfemur -15.0073 1.37425 -26.5485
ltibia 25.4996
lfoot -15.1488 2.4206
ltoes 0.396792
190
root 0.0216 16.3615 39.2194 6.44499 0.0156 0.910929
lowerback -2.95749 -2.13073 -2.98296
upperback 0.205896 -2.78774 2.54289
thorax 2.14022 -1.44267 4.1584
lowerneck -22.945 -3.24511 -11.42
upperneck 23.2813 -3.56716 11.0358
head 11.8533 -1.20893 5.50081
rclavicle 3.01159e-014 -3.10104e-014
rhumerus -41.3431 13.583 -86.7064
rradius 34.4579
rwrist -16.2882
rhand -30.3902 -24.9291
rfingers 7.12502
rthumb -3.69431 -54.8768
lclavicle 3.01159e-014 -3.10104e-014
lhumerus -26.7307 -6.71221 86.611
lradius 22.7404
lwrist -2.58436
lhand -11.7604 -24.949
lfingers 7.12502
lthumb 14.2879 4.53942
rfemur -31.0489 -4.31888 21.9095
rtibia 63.9025
rfoot -12.7026 -10.4923
rtoes -12.3126
lfemur -14.1368 1.07511 -26.8955
ltibia 25.1616
lfoot -15.8128 2.42198
ltoes 0.663876
191
root 0.0216 16.3617 39.4118 6.50348 0.0156 1.15205
lowerback -2.97824 -2.23853 -3.25915
upperback 0.209783 -2.9195 2.4524
thorax 2.17778 -1.51193 4.21198
lowerneck -23.2657 -3.30549 -11.2128
upperneck 23.5127 -3.65291 10.8333
head 12.0085 -1.24868 5.38478
rclavicle -6.5102e-015 1.35174e-014
rhumerus -41.7784 13.3065 -86.7237
rradius 34.1341
rwrist -16.2752
rhand -28.9507 -26.0983
rfingers 7.12502
rthumb -2.30413 -56.0656
lclavicle -6.5102e-015 1.35174e-014
lhumerus -25.6797 -7.56069 86.5024
lradius 23.4091
lwrist -2.30704
lhand -11.1526 -24.7336
lfingers 7.12502
lthumb 14.8735 4.71248
rfemur -32.3076 -3.66266 21.5327
rtibia 62.5011
rfoot -13.6538 -10.5545
rtoes -13.8762
lfemur -13.3116 0.940463 -27.1232
ltibia 24.7026
lfoot -16.148 2.15171
ltoes 2.56483
192
root 0.0216 16.3522 39.6041 6.52885 0.0156 1.46818
lowerback -2.91589 -2.38999 -3.60363
upperback 0.170113 -3.11002 2.39678
thorax 2.13628 -1.60931 4.34103
lowerneck -23.8868 -3.24903 -10.5392
upperneck 24.0522 -3.5892 10.1217
head 12.3019 -1.23988 5.028
rclavicle 4.36332e-014 3.97569e-015
rhumerus -42.4205 13.3817 -86.743
rradius 33.9985
rwrist -16.4379
rhand -25.5885 -29.5088
rfingers 7.12502
rthumb 0.943196 -59.4865
lclavicle 4.36332e-014 3.97569e-015
lhumerus -24.8152 -8.66649 86.5546
lradius 24.1699
lwrist -1.23021
lhand -11.4508 -24.9738
lfingers 7.12502
lthumb 14.5862 4.49331
rfemur -33.1865 -3.37643 21.1613
rtibia 60.9617
rfoot -13.6989 -10.8145
rtoes -13.0941
lfemur -12.4316 0.98155 -27.4616
ltibia 24.2187
lfoot -16.4265 1.85043
ltoes 2.04638
193
root 0.0216 16.3483 39.7964 6.46853 0.0156 1.64091
lowerback -2.71098 -2.54199 -3.79646
upperback 0.0886368 -3.31226 2.37961
thorax 1.96827 -1.70736 4.43136
lowerneck -23.1579 -3.19267 -10.7827
upperneck 23.4796 -3.58765 10.5744
head 11.9508 -1.215 5.21647
rclavicle 9.83984e-015 -1.74931e-014
rhumerus -43.1873 13.4655 -86.77
rradius 33.9187
rwrist -16.4656
rhand -24.317 -30.9901
rfingers 7.12502
rthumb 2.17124 -60.9588
lclavicle 9.83984e-015 -1.74931e-014
lhumerus -24.0807 -9.73157 86.6008
lradius 24.8552
lwrist 0.0439008
lhand -11.5229 -25.0997
lfingers 7.12502
lthumb 14.5167 4.37245
rfemur -33.8655 -3.28352 20.9789
rtibia 59.1291
rfoot -13.7627 -10.3792
rtoes -13.0169
lfemur -11.3637 0.963657 -27.6623
ltibia 23.6185
lfoot -16.9124 1.79859
ltoes 0.504872
194
root 0.0216 16.3375 39.9888 6.41567 0.0156 1.50739
lowerback -2.59973 -2.62524 -3.70951
upperback 0.0666063 -3.43156 2.48542
thorax 1.89729 -1.76504 4.4914
lowerneck -22.836 -3.28783 -11.3093
upperneck 23.1667 -3.67504 11.0393
head 11.801 -1.2486 5.45839
rclavicle -8.15017e-015 3.18055e-015
rhumerus -43.834 13.414 -86.6488
rradius 33.7518
rwrist -16.6324
rhand -25.0613 -30.5785
rfingers 7.12502
rthumb 1.45233 -60.5533
lclavicle -8.15017e-015 3.18055e-015
lhumerus -23.2736 -10.7779 86.7035
lradius 25.6936
lwrist 1.00736
lhand -11.4547 -25.0754
lfingers 7.12502
lthumb 14.5825 4.39196
rfemur -34.5032 -3.08085 21.1563
rtibia 57.098
rfoot -14.1584 -9.75889
rtoes -17.2926
lfemur -10.2486 0.922803 -27.4871
ltibia 22.9258
lfoot -17.2193 1.38243
ltoes 2.16396
